<svg width="138" height="60" viewBox="0 0 138 60" fill="none" xmlns="http://www.w3.org/2000/svg">
<g filter="url(#filter0_d)">
<path d="M44 5.10791L23.9467 44.9999L19.36 35.9311L44 5.10791Z" fill="#E44545"/>
<path d="M26.0267 27.4022L4 5L44 5L26.0267 27.4022Z" fill="#1F8299"/>
<path d="M25.92 27.5274L19.3067 35.8232L4.00001 5.10791L25.92 27.5274Z" fill="#4A992E"/>
</g>
<path d="M50.6834 18.56H54.4434L55.6634 28.98H55.7834L57.9634 18.48H62.1034L64.2834 28.98H64.4034L65.6234 18.56H69.4034L66.9434 32H61.8634L60.0434 22.64L58.2234 32H53.1234L50.6834 18.56ZM74.963 32.26C74.003 32.26 73.1564 32.0333 72.423 31.58C71.703 31.1267 71.143 30.4933 70.743 29.68C70.3564 28.8667 70.163 27.9467 70.163 26.92C70.163 25.92 70.3564 25.0333 70.743 24.26C71.1297 23.4733 71.683 22.86 72.403 22.42C73.123 21.9667 73.9764 21.74 74.963 21.74C75.9497 21.74 76.803 21.96 77.523 22.4C78.2564 22.84 78.8164 23.4533 79.203 24.24C79.5897 25.0133 79.783 25.9067 79.783 26.92C79.783 27.96 79.583 28.8867 79.183 29.7C78.7964 30.5 78.2364 31.1267 77.503 31.58C76.7697 32.0333 75.923 32.26 74.963 32.26ZM74.963 29.34C75.3097 29.34 75.6164 29.14 75.883 28.74C76.1497 28.3267 76.283 27.72 76.283 26.92C76.283 26.1867 76.1564 25.6267 75.903 25.24C75.6497 24.8533 75.3364 24.66 74.963 24.66C74.5897 24.66 74.2764 24.8533 74.023 25.24C73.783 25.6267 73.663 26.1867 73.663 26.92C73.663 27.72 73.7897 28.3267 74.043 28.74C74.3097 29.14 74.6164 29.34 74.963 29.34ZM81.4262 22H84.8862V22.86C86.0462 22.26 87.0062 21.8867 87.7662 21.74V25.24C87.3528 25.3333 86.8395 25.42 86.2262 25.5C86.1195 25.5133 85.7862 25.5667 85.2262 25.66L84.9062 25.72V32H81.4262V22ZM89.1996 18.24H92.6796V25.86L93.3396 25.6L94.7196 22H98.5996L96.4396 26.84L98.7396 32H94.8396L93.4596 28.6L92.6796 28.86V32H89.1996V18.24ZM102.64 32.26C101.533 32.26 100.707 31.98 100.16 31.42C99.6266 30.8467 99.3599 29.98 99.3599 28.82C99.3599 27.7133 99.6533 26.94 100.24 26.5C100.84 26.0467 101.807 25.7867 103.14 25.72L104.62 25.64V25.18C104.62 24.9533 104.56 24.8133 104.44 24.76C104.333 24.6933 104.1 24.66 103.74 24.66L101.94 24.7C100.793 24.7533 100.18 24.7667 100.1 24.74L100.02 22.4C101.46 21.96 102.86 21.74 104.22 21.74C105.593 21.74 106.58 22.0133 107.18 22.56C107.78 23.0933 108.08 23.9667 108.08 25.18V28.7C108.093 28.8467 108.107 29.0133 108.12 29.2C108.133 29.3733 108.16 29.4933 108.2 29.56C108.24 29.6133 108.313 29.6533 108.42 29.68L108.32 32.26C107.493 32.26 106.873 32.22 106.46 32.14C106.06 32.0733 105.62 31.9067 105.14 31.64C104.313 32.0533 103.48 32.26 102.64 32.26ZM103.44 29.48C103.653 29.48 103.98 29.4467 104.42 29.38L104.62 29.36V27.98L103.56 28.06C103.333 28.0867 103.153 28.1667 103.02 28.3C102.887 28.4333 102.82 28.62 102.82 28.86C102.82 29.2733 103.027 29.48 103.44 29.48ZM110.491 18.24H113.971V32H110.491V18.24ZM119.609 32.26C118.343 32.26 117.456 31.86 116.949 31.06C116.443 30.2467 116.189 28.98 116.189 27.26V22H119.669V27.34C119.669 27.8867 119.689 28.28 119.729 28.52C119.769 28.7467 119.863 28.9133 120.009 29.02C120.156 29.1133 120.396 29.16 120.729 29.16C121.009 29.16 121.423 29.1267 121.969 29.06V22H125.429V32H122.009V31.54C121.436 31.8333 120.976 32.0267 120.629 32.12C120.296 32.2133 119.956 32.26 119.609 32.26Z" fill="url(#paint0_linear)"/>
<defs>
<filter id="filter0_d" x="0" y="0" width="60" height="59.9999" filterUnits="userSpaceOnUse" color-interpolation-filters="sRGB">
<feFlood flood-opacity="0" result="BackgroundImageFix"/>
<feColorMatrix in="SourceAlpha" type="matrix" values="0 0 0 0 0 0 0 0 0 0 0 0 0 0 0 0 0 0 127 0"/>
<feOffset dx="6" dy="5"/>
<feGaussianBlur stdDeviation="5"/>
<feColorMatrix type="matrix" values="0 0 0 0 0 0 0 0 0 0 0 0 0 0 0 0 0 0 0.25 0"/>
<feBlend mode="normal" in2="BackgroundImageFix" result="effect1_dropShadow"/>
<feBlend mode="normal" in="SourceGraphic" in2="effect1_dropShadow" result="shape"/>
</filter>
<linearGradient id="paint0_linear" x1="88.5" y1="14" x2="88.5" y2="35" gradientUnits="userSpaceOnUse">
<stop stop-color="white"/>
<stop offset="1" stop-color="#B3B3B3"/>
</linearGradient>
</defs>
</svg>
