<svg width="143" height="60" viewBox="0 0 143 60" fill="none" xmlns="http://www.w3.org/2000/svg">
<g filter="url(#filter0_d)">
<path d="M44 5.10797L23.9467 45L19.36 35.9312L44 5.10797Z" fill="#E44545"/>
<path d="M26.0267 27.4022L4 5L44 5L26.0267 27.4022Z" fill="#1F8299"/>
<path d="M25.92 27.5274L19.3067 35.8232L4.00001 5.10797L25.92 27.5274Z" fill="#4A992E"/>
</g>
<path d="M50.0992 21.66V24.72H54.3792V27.82H50.0992V32H46.5392V18.56H55.4792V21.66H50.0992ZM61.4395 32.28C60.2929 32.28 58.9862 32.0867 57.5195 31.7L56.7995 31.54L57.1595 28.82C58.9195 29.06 60.2795 29.18 61.2395 29.18C62.2795 29.18 62.7995 28.82 62.7995 28.1C62.7995 27.8467 62.6795 27.6467 62.4395 27.5C62.2129 27.3533 61.8729 27.1933 61.4195 27.02C61.1262 26.9133 60.9129 26.8267 60.7795 26.76C59.2729 26.2533 58.1995 25.6733 57.5595 25.02C56.9329 24.3667 56.6195 23.5467 56.6195 22.56C56.6195 21.16 57.0462 20.1 57.8995 19.38C58.7529 18.66 59.9129 18.3 61.3795 18.3C61.9795 18.3 62.5462 18.34 63.0795 18.42C63.6262 18.5 64.6195 18.6733 66.0595 18.94L65.7795 21.7C64.0462 21.5 62.7129 21.4 61.7795 21.4C60.6862 21.4 60.1395 21.7 60.1395 22.3C60.1395 22.5 60.2729 22.6733 60.5395 22.82C60.8062 22.9533 61.2262 23.1267 61.7995 23.34C62.3862 23.5533 62.7662 23.7 62.9395 23.78C63.8195 24.14 64.4995 24.4933 64.9795 24.84C65.4595 25.1733 65.8062 25.58 66.0195 26.06C66.2329 26.54 66.3395 27.1467 66.3395 27.88C66.3395 28.8133 66.1195 29.6133 65.6795 30.28C65.2529 30.9333 64.6662 31.4333 63.9195 31.78C63.1862 32.1133 62.3595 32.28 61.4395 32.28ZM71.818 21.66V23.76H76.098V26.8H71.818V28.9H77.298V32H68.258V18.56H77.298V21.66H71.818ZM79.3517 18.56H84.7317C86.4117 18.56 87.6717 18.9533 88.5117 19.74C89.3651 20.5267 89.7917 21.6867 89.7917 23.22C89.7917 24.7533 89.2451 26.04 88.1517 27.08L89.6117 32H85.7117L84.7317 27.94H82.9117V32H79.3517V18.56ZM84.7917 24.9C85.2184 24.9 85.5451 24.74 85.7717 24.42C86.0117 24.0867 86.1317 23.6867 86.1317 23.22C86.1317 22.7667 85.9984 22.38 85.7317 22.06C85.4784 21.74 85.1451 21.58 84.7317 21.58H82.9117V24.9H84.7917ZM90.5364 18.56H94.2964L96.1164 28.9H96.8564L98.6764 18.56H102.436L99.5964 32H93.3764L90.5364 18.56ZM104 18.56H107.56V32H104V18.56ZM115.11 32.26C113.656 32.26 112.536 32.0133 111.75 31.52C110.976 31.0267 110.443 30.2933 110.15 29.32C109.856 28.3333 109.71 27.02 109.71 25.38C109.71 23.46 109.876 21.9933 110.21 20.98C110.556 19.9667 111.09 19.2667 111.81 18.88C112.53 18.4933 113.53 18.3 114.81 18.3C116.116 18.3 117.543 18.5 119.09 18.9L118.99 21.7C117.736 21.5267 116.723 21.44 115.95 21.44C115.243 21.44 114.703 21.5533 114.33 21.78C113.956 21.9933 113.696 22.34 113.55 22.82C113.416 23.2867 113.35 23.9533 113.35 24.82C113.35 25.26 113.356 25.6 113.37 25.84C113.41 26.8267 113.49 27.54 113.61 27.98C113.73 28.42 113.943 28.72 114.25 28.88C114.556 29.04 115.05 29.12 115.73 29.12C116.65 29.12 117.736 29.0467 118.99 28.9L119.05 31.78C117.61 32.1 116.296 32.26 115.11 32.26ZM124.67 21.66V23.76H128.95V26.8H124.67V28.9H130.15V32H121.11V18.56H130.15V21.66H124.67ZM136.322 32.28C135.176 32.28 133.869 32.0867 132.402 31.7L131.682 31.54L132.042 28.82C133.802 29.06 135.162 29.18 136.122 29.18C137.162 29.18 137.682 28.82 137.682 28.1C137.682 27.8467 137.562 27.6467 137.322 27.5C137.096 27.3533 136.756 27.1933 136.302 27.02C136.009 26.9133 135.796 26.8267 135.662 26.76C134.156 26.2533 133.082 25.6733 132.442 25.02C131.816 24.3667 131.502 23.5467 131.502 22.56C131.502 21.16 131.929 20.1 132.782 19.38C133.636 18.66 134.796 18.3 136.262 18.3C136.862 18.3 137.429 18.34 137.962 18.42C138.509 18.5 139.502 18.6733 140.942 18.94L140.662 21.7C138.929 21.5 137.596 21.4 136.662 21.4C135.569 21.4 135.022 21.7 135.022 22.3C135.022 22.5 135.156 22.6733 135.422 22.82C135.689 22.9533 136.109 23.1267 136.682 23.34C137.269 23.5533 137.649 23.7 137.822 23.78C138.702 24.14 139.382 24.4933 139.862 24.84C140.342 25.1733 140.689 25.58 140.902 26.06C141.116 26.54 141.222 27.1467 141.222 27.88C141.222 28.8133 141.002 29.6133 140.562 30.28C140.136 30.9333 139.549 31.4333 138.802 31.78C138.069 32.1133 137.242 32.28 136.322 32.28Z" fill="url(#paint0_linear)"/>
<defs>
<filter id="filter0_d" x="0" y="0" width="60" height="60" filterUnits="userSpaceOnUse" color-interpolation-filters="sRGB">
<feFlood flood-opacity="0" result="BackgroundImageFix"/>
<feColorMatrix in="SourceAlpha" type="matrix" values="0 0 0 0 0 0 0 0 0 0 0 0 0 0 0 0 0 0 127 0"/>
<feOffset dx="6" dy="5"/>
<feGaussianBlur stdDeviation="5"/>
<feColorMatrix type="matrix" values="0 0 0 0 0 0 0 0 0 0 0 0 0 0 0 0 0 0 0.25 0"/>
<feBlend mode="normal" in2="BackgroundImageFix" result="effect1_dropShadow"/>
<feBlend mode="normal" in="SourceGraphic" in2="effect1_dropShadow" result="shape"/>
</filter>
<linearGradient id="paint0_linear" x1="93.5" y1="14" x2="93.5" y2="35" gradientUnits="userSpaceOnUse">
<stop stop-color="#1F8299"/>
<stop offset="1" stop-color="#155766"/>
</linearGradient>
</defs>
</svg>
